<svg width="32" height="32" viewBox="0 0 32 32" fill="none" xmlns="http://www.w3.org/2000/svg">
<path d="M27.2 9H4.8C3.2536 9 2 10.2792 2 11.8571V26.1429C2 27.7208 3.2536 29 4.8 29H27.2C28.7464 29 30 27.7208 30 26.1429V11.8571C30 10.2792 28.7464 9 27.2 9Z" stroke="#FF9900" stroke-width="3" stroke-linecap="round" stroke-linejoin="round"/>
<path d="M21 28V5.77778C21 5.04107 20.7366 4.33453 20.2678 3.81359C19.7989 3.29266 19.163 3 18.5 3H13.5C12.837 3 12.2011 3.29266 11.7322 3.81359C11.2634 4.33453 11 5.04107 11 5.77778V28" stroke="#FF9900" stroke-width="3" stroke-linecap="round" stroke-linejoin="round"/>
</svg>
