<svg width="32" height="32" viewBox="0 0 32 32" fill="none" xmlns="http://www.w3.org/2000/svg">
<path d="M25.3334 30C27.9107 30 30 27.9106 30 25.3333C30 22.756 27.9107 20.6666 25.3334 20.6666C22.756 20.6666 20.6667 22.756 20.6667 25.3333C20.6667 27.9106 22.756 30 25.3334 30Z" stroke="#FF9900" stroke-width="3" stroke-linecap="round" stroke-linejoin="round"/>
<path d="M6.66667 11.3333C9.244 11.3333 11.3333 9.244 11.3333 6.66667C11.3333 4.08934 9.244 2 6.66667 2C4.08934 2 2 4.08934 2 6.66667C2 9.244 4.08934 11.3333 6.66667 11.3333Z" stroke="#FF9900" stroke-width="3" stroke-linecap="round" stroke-linejoin="round"/>
<path d="M17.5555 6.66663H22.2222C23.0473 6.66663 23.8386 6.9944 24.4221 7.57785C25.0055 8.1613 25.3333 8.95262 25.3333 9.77774V20.6666" stroke="#FF9900" stroke-width="3" stroke-linecap="round" stroke-linejoin="round"/>
<path d="M6.66669 11.3334V30" stroke="#FF9900" stroke-width="3" stroke-linecap="round" stroke-linejoin="round"/>
</svg>
