<svg xmlns="http://www.w3.org/2000/svg" width="148" height="19" viewBox="0 0 148 19">
  <g fill="none">
    <path fill="#FFF" d="M28.032,1.2 L22.584,18 L17.496,18 L14.28,7.776 L10.92,18 L5.832,18 L0.384,1.2 L5.28,1.2 L8.664,11.928 L12.216,1.2 L16.584,1.2 L19.968,12.024 L23.496,1.2 L28.032,1.2 Z M37.0787,13.536 L34.4867,13.536 L34.4867,18 L29.7347,18 L29.7347,1.2 L37.4147,1.2 C38.9347,1.2 40.2547,1.456 41.3747,1.968 C42.4947,2.464 43.3587,3.184 43.9667,4.128 C44.5747,5.056 44.8787,6.152 44.8787,7.416 C44.8787,8.632 44.5907,9.696 44.0147,10.608 C43.4547,11.504 42.6467,12.208 41.5907,12.72 L45.2147,18 L40.1267,18 L37.0787,13.536 Z M40.0787,7.416 C40.0787,6.632 39.8307,6.024 39.3347,5.592 C38.8387,5.16 38.1027,4.944 37.1267,4.944 L34.4867,4.944 L34.4867,9.864 L37.1267,9.864 C38.1027,9.864 38.8387,9.656 39.3347,9.24 C39.8307,8.808 40.0787,8.2 40.0787,7.416 Z M53.9803,11.904 L52.2043,13.8 L52.2043,18 L47.5003,18 L47.5003,1.2 L52.2043,1.2 L52.2043,8.184 L58.7083,1.2 L63.9403,1.2 L57.0763,8.64 L64.3003,18 L58.7803,18 L53.9803,11.904 Z M70.2992,4.872 L70.2992,8.568 L77.7152,8.568 L77.7152,12.24 L70.2992,12.24 L70.2992,18 L65.5472,18 L65.5472,1.2 L78.7232,1.2 L78.7232,4.872 L70.2992,4.872 Z M80.9456,1.2 L85.6976,1.2 L85.6976,14.232 L93.7136,14.232 L93.7136,18 L80.9456,18 L80.9456,1.2 Z M103.808,18.336 C102.032,18.336 100.432,17.96 99.0083,17.208 C97.6003,16.456 96.4883,15.416 95.6723,14.088 C94.8723,12.76 94.4723,11.264 94.4723,9.6 C94.4723,7.936 94.8723,6.44 95.6723,5.112 C96.4883,3.784 97.6003,2.744 99.0083,1.992 C100.432,1.24 102.032,0.864 103.808,0.864 C105.584,0.864 107.176,1.24 108.584,1.992 C110.008,2.744 111.12,3.784 111.92,5.112 C112.736,6.44 113.144,7.936 113.144,9.6 C113.144,11.264 112.736,12.76 111.92,14.088 C111.12,15.416 110.008,16.456 108.584,17.208 C107.176,17.96 105.584,18.336 103.808,18.336 Z M103.808,14.4 C104.656,14.4 105.424,14.2 106.112,13.8 C106.8,13.4 107.344,12.84 107.744,12.12 C108.144,11.384 108.344,10.544 108.344,9.6 C108.344,8.656 108.144,7.824 107.744,7.104 C107.344,6.368 106.8,5.8 106.112,5.4 C105.424,5 104.656,4.8 103.808,4.8 C102.96,4.8 102.192,5 101.504,5.4 C100.816,5.8 100.272,6.368 99.8723,7.104 C99.4723,7.824 99.2723,8.656 99.2723,9.6 C99.2723,10.544 99.4723,11.384 99.8723,12.12 C100.272,12.84 100.816,13.4 101.504,13.8 C102.192,14.2 102.96,14.4 103.808,14.4 Z M141.399,1.2 L135.951,18 L130.863,18 L127.647,7.776 L124.287,18 L119.199,18 L113.751,1.2 L118.647,1.2 L122.031,11.928 L125.583,1.2 L129.951,1.2 L133.335,12.024 L136.863,1.2 L141.399,1.2 Z"/>
    <path fill="#7737FF" d="M145.157,18.216 C144.389,18.216 143.741,17.96 143.213,17.448 C142.685,16.936 142.421,16.288 142.421,15.504 C142.421,14.704 142.677,14.056 143.189,13.56 C143.717,13.064 144.373,12.816 145.157,12.816 C145.957,12.816 146.613,13.064 147.125,13.56 C147.637,14.056 147.893,14.704 147.893,15.504 C147.893,16.288 147.629,16.936 147.101,17.448 C146.589,17.96 145.941,18.216 145.157,18.216 Z"/>
  </g>
</svg>
