<svg width="148" height="19" viewBox="0 0 148 19" fill="none" xmlns="http://www.w3.org/2000/svg">
<path d="M28.032 1.20001L22.584 18H17.496L14.28 7.77601L10.92 18H5.832L0.384 1.20001H5.28L8.664 11.928L12.216 1.20001H16.584L19.968 12.024L23.496 1.20001H28.032Z" fill="#00006D"/>
<path d="M37.0787 13.536H34.4867V18H29.7347V1.20001H37.4147C38.9347 1.20001 40.2547 1.45601 41.3747 1.96801C42.4947 2.46401 43.3587 3.18401 43.9667 4.12802C44.5747 5.05601 44.8787 6.15201 44.8787 7.41601C44.8787 8.63201 44.5907 9.69602 44.0147 10.608C43.4547 11.504 42.6467 12.208 41.5907 12.72L45.2147 18H40.1267L37.0787 13.536ZM40.0787 7.41601C40.0787 6.63201 39.8307 6.02401 39.3347 5.59201C38.8387 5.16001 38.1027 4.94401 37.1267 4.94401H34.4867V9.86402H37.1267C38.1027 9.86402 38.8387 9.65601 39.3347 9.24002C39.8307 8.80801 40.0787 8.20001 40.0787 7.41601Z" fill="#00006D"/>
<path d="M53.9803 11.904L52.2043 13.8V18H47.5003V1.20001H52.2043V8.18401L58.7083 1.20001H63.9403L57.0763 8.64001L64.3003 18H58.7803L53.9803 11.904Z" fill="#00006D"/>
<path d="M70.2992 4.87201V8.56801H77.7152V12.24H70.2992V18H65.5472V1.20001H78.7232V4.87201H70.2992Z" fill="#00006D"/>
<path d="M80.9456 1.20001H85.6976V14.232H93.7136V18H80.9456V1.20001Z" fill="#00006D"/>
<path d="M103.808 18.336C102.032 18.336 100.432 17.96 99.0082 17.208C97.6002 16.456 96.4882 15.416 95.6722 14.088C94.8722 12.76 94.4722 11.264 94.4722 9.60001C94.4722 7.93601 94.8722 6.44001 95.6722 5.11201C96.4882 3.78401 97.6002 2.74401 99.0082 1.99201C100.432 1.24001 102.032 0.864014 103.808 0.864014C105.584 0.864014 107.176 1.24001 108.584 1.99201C110.008 2.74401 111.12 3.78401 111.92 5.11201C112.736 6.44001 113.144 7.93601 113.144 9.60001C113.144 11.264 112.736 12.76 111.92 14.088C111.12 15.416 110.008 16.456 108.584 17.208C107.176 17.96 105.584 18.336 103.808 18.336ZM103.808 14.4C104.656 14.4 105.424 14.2 106.112 13.8C106.8 13.4 107.344 12.84 107.744 12.12C108.144 11.384 108.344 10.544 108.344 9.60001C108.344 8.65601 108.144 7.82401 107.744 7.10401C107.344 6.36801 106.8 5.80001 106.112 5.40001C105.424 5.00001 104.656 4.80001 103.808 4.80001C102.96 4.80001 102.192 5.00001 101.504 5.40001C100.816 5.80001 100.272 6.36801 99.8723 7.10401C99.4723 7.82401 99.2722 8.65601 99.2722 9.60001C99.2722 10.544 99.4723 11.384 99.8723 12.12C100.272 12.84 100.816 13.4 101.504 13.8C102.192 14.2 102.96 14.4 103.808 14.4Z" fill="#00006D"/>
<path d="M141.399 1.20001L135.951 18H130.863L127.647 7.77601L124.287 18H119.199L113.751 1.20001H118.647L122.031 11.928L125.583 1.20001H129.951L133.335 12.024L136.863 1.20001H141.399Z" fill="#00006D"/>
<path d="M145.157 18.216C144.389 18.216 143.741 17.96 143.213 17.448C142.685 16.936 142.421 16.288 142.421 15.504C142.421 14.704 142.677 14.056 143.189 13.56C143.717 13.064 144.373 12.816 145.157 12.816C145.957 12.816 146.613 13.064 147.125 13.56C147.637 14.056 147.893 14.704 147.893 15.504C147.893 16.288 147.629 16.936 147.101 17.448C146.589 17.96 145.941 18.216 145.157 18.216Z" fill="#00006D"/>
</svg>
