<svg width="32" height="32" viewBox="0 0 32 32" fill="none" xmlns="http://www.w3.org/2000/svg">
<path d="M30 17.2613C29.7548 19.9148 28.7589 22.4436 27.129 24.5517C25.499 26.6599 23.3023 28.2603 20.796 29.1656C18.2897 30.0709 15.5774 30.2437 12.9764 29.6637C10.3755 29.0838 7.99353 27.7751 6.10923 25.8908C4.22492 24.0065 2.91623 21.6245 2.33628 19.0236C1.75634 16.4226 1.92912 13.7103 2.83442 11.204C3.73972 8.69767 5.34009 6.50101 7.44827 4.87104C9.55645 3.24107 12.0852 2.24522 14.7387 2C13.1852 4.10176 12.4376 6.69132 12.632 9.29768C12.8263 11.904 13.9497 14.3541 15.7978 16.2022C17.6459 18.0503 20.096 19.1737 22.7023 19.368C25.3087 19.5624 27.8982 18.8148 30 17.2613Z" stroke="white" stroke-width="3" stroke-linecap="round" stroke-linejoin="round"/>
</svg>
