<?xml version="1.0" encoding="UTF-8"?><!DOCTYPE svg PUBLIC "-//W3C//DTD SVG 1.1//EN" "http://www.w3.org/Graphics/SVG/1.1/DTD/svg11.dtd"><svg xmlns="http://www.w3.org/2000/svg"><symbol id="icon-arrow-prev" viewBox="0 0 16 16">
    <path fill-rule="evenodd" clip-rule="evenodd" d="M8.707.293a1 1 0 0 1 0 1.414L2.414 8l6.293 6.293a1 1 0 1 1-1.414 1.414l-7-7a1 1 0 0 1 0-1.414l7-7a1 1 0 0 1 1.414 0z"/>
    <path fill-rule="evenodd" clip-rule="evenodd" d="M0 8a1 1 0 0 1 1-1h14a1 1 0 1 1 0 2H1a1 1 0 0 1-1-1z"/>
</symbol><symbol id="icon-arrow-right" viewBox="0 0 8 14">
    <path fill-rule="evenodd" clip-rule="evenodd" d="M.293.293a1 1 0 0 0 0 1.414L5.586 7 .293 12.293a1 1 0 1 0 1.414 1.414l6-6a1 1 0 0 0 0-1.414l-6-6a1 1 0 0 0-1.414 0z"/>
</symbol><symbol id="icon-check" viewBox="0 0 22 22">
    <path fill-rule="evenodd" clip-rule="evenodd" d="M9.017 2.221a9 9 0 0 1 5.646.558 1 1 0 1 0 .814-1.827A11 11 0 1 0 22 11.006v-.92a1 1 0 0 0-2 0v.92A9 9 0 1 1 9.017 2.22zm12.69 1.486a1 1 0 0 0-1.414-1.414L11 11.586l-2.293-2.29a1 1 0 1 0-1.414 1.415l3 2.996a1 1 0 0 0 1.414 0l10-10z"/>
</symbol><symbol id="icon-email" viewBox="0 0 22 18">
    <path fill-rule="evenodd" clip-rule="evenodd" d="M2.107 2.554C2.272 2.227 2.612 2 3 2h16c.388 0 .728.227.893.554L11 8.779 2.107 2.554zM0 2.985V15c0 1.652 1.348 3 3 3h16c1.652 0 3-1.348 3-3V3.014A3.006 3.006 0 0 0 19 0H3a3.006 3.006 0 0 0-3 2.985zm20 1.936V15c0 .548-.452 1-1 1H3c-.548 0-1-.452-1-1V4.92l8.427 5.9a1 1 0 0 0 1.146 0L20 4.92z"/>
</symbol><symbol id="icon-facebook" viewBox="0 0 13 22">
    <path fill-rule="evenodd" clip-rule="evenodd" d="M4.757 1.757A6 6 0 0 1 9 0h3a1 1 0 0 1 1 1v4a1 1 0 0 1-1 1H9v2h3a1 1 0 0 1 .97 1.243l-1 4A1 1 0 0 1 11 14H9v7a1 1 0 0 1-1 1H4a1 1 0 0 1-1-1v-7H1a1 1 0 0 1-1-1V9a1 1 0 0 1 1-1h2V6a6 6 0 0 1 1.757-4.243zM9 2a4 4 0 0 0-4 4v3a1 1 0 0 1-1 1H2v2h2a1 1 0 0 1 1 1v7h2v-7a1 1 0 0 1 1-1h2.22l.5-2H8a1 1 0 0 1-1-1V6a2 2 0 0 1 2-2h2V2H9z"/>
</symbol><symbol id="icon-instagram" viewBox="0 0 20 20">
    <path fill-rule="evenodd" clip-rule="evenodd" d="M5.5 2A3.5 3.5 0 0 0 2 5.5v9A3.5 3.5 0 0 0 5.5 18h9a3.5 3.5 0 0 0 3.5-3.5v-9A3.5 3.5 0 0 0 14.5 2h-9zM0 5.5A5.5 5.5 0 0 1 5.5 0h9A5.5 5.5 0 0 1 20 5.5v9a5.5 5.5 0 0 1-5.5 5.5h-9A5.5 5.5 0 0 1 0 14.5v-9zm10.42 1.888a2.6 2.6 0 1 0-.762 5.144 2.6 2.6 0 0 0 .762-5.144zm-2.5-1.51a4.6 4.6 0 1 1 4.238 8.165A4.6 4.6 0 0 1 7.92 5.877zm7.03-1.828a1 1 0 1 0 0 2h.008a1 1 0 1 0 0-2h-.008z"/>
</symbol><symbol id="icon-lock" viewBox="0 0 20 22">
    <path fill-rule="evenodd" clip-rule="evenodd" d="M7.172 3.172A4 4 0 0 1 14 6v3H6V6a4 4 0 0 1 1.172-2.828zM4 9V6a6 6 0 1 1 12 0v3h1a3 3 0 0 1 3 3v7a3 3 0 0 1-3 3H3a3 3 0 0 1-3-3v-7a3 3 0 0 1 3-3h1zm11 2H3a1 1 0 0 0-1 1v7a1 1 0 0 0 1 1h14a1 1 0 0 0 1-1v-7a1 1 0 0 0-1-1h-2z"/>
</symbol><symbol id="icon-twitter" viewBox="0 0 22 18">
    <path fill-rule="evenodd" clip-rule="evenodd" d="M13.27.326A5.148 5.148 0 0 1 16.3.148a5.101 5.101 0 0 1 2.11 1.085A8.977 8.977 0 0 0 20.43.187a1 1 0 0 1 1.54 1.063 7.84 7.84 0 0 1-1.806 3.378c.01.13.016.26.017.39v.004c0 5.486-2.696 9.513-6.56 11.53-3.838 2.004-8.736 1.98-13.1-.398a1 1 0 0 1 .517-1.877 9.763 9.763 0 0 0 4.205-.772c-1.282-.81-2.22-1.76-2.882-2.786-.926-1.433-1.275-2.952-1.338-4.314a11.594 11.594 0 0 1 .387-3.45 11.623 11.623 0 0 1 .444-1.345l.036-.084.01-.025.004-.008.001-.003c.001-.001.001-.002.912.41l-.91-.412a1 1 0 0 1 1.723-.17 8.64 8.64 0 0 0 3.203 2.714c.991.489 2.066.786 3.166.88a4.943 4.943 0 0 1 .88-2.73A5.06 5.06 0 0 1 13.27.326zM3.237 3.913a9.374 9.374 0 0 0-.215 2.4c.05 1.09.326 2.247 1.02 3.321.69 1.069 1.834 2.119 3.721 2.942a1 1 0 0 1 .155 1.749c-.902.6-1.88 1.069-2.903 1.397 2.732.59 5.446.225 7.681-.942 3.181-1.661 5.485-4.99 5.486-9.757 0-.184-.02-.369-.054-.55a1 1 0 0 1 .286-.91c.107-.104.21-.211.308-.322-.097.032-.195.062-.293.091a1 1 0 0 1-1.032-.295 3.086 3.086 0 0 0-1.574-.946 3.148 3.148 0 0 0-1.852.108 3.06 3.06 0 0 0-1.446 1.121A2.94 2.94 0 0 0 12 5.035v.905a1 1 0 0 1-.975 1A10.848 10.848 0 0 1 5.95 5.825a10.69 10.69 0 0 1-2.712-1.912z"/>
</symbol></svg>